<svg xmlns="http://www.w3.org/2000/svg" viewBox="0 0 432.68 431.64"><defs><style>.cls-1{fill:#e79824;}.cls-2{fill:#fff;}</style></defs><title>Ativo 3</title><g id="Camada_2" data-name="Camada 2"><g id="Layer_1" data-name="Layer 1"><path class="cls-1" d="M393.12,427.76q-100.72,0-201.46,1.36-50.37.64-100.73,1.61l-25.18.49-12.6.25-6.29.12-1.58,0H44.5l-.87,0c-1.16-.05-2.33,0-3.5-.15a38.63,38.63,0,0,1-24.75-12.28,39.06,39.06,0,0,1-7.6-12,39.88,39.88,0,0,1-2.86-14l-2-100.74Q2,242.14,1.29,191.76T.26,91L.11,65.85,0,53.26,0,47V44.6l0-1c.07-1.34.09-2.69.24-4A44.56,44.56,0,0,1,28.55,3,45,45,0,0,1,44.42,0Q145.14,0,245.88,1.34,296.25,2,346.62,3l25.18.48,12.59.26,6.3.13,1.57,0h.79l.91.06c1.23.09,2.46.13,3.68.29a40.07,40.07,0,0,1,35,40.3l-2,100.74Q429.73,195.62,429,246t-1,100.73l-.15,25.18-.07,12.59,0,6.3c0,2.09-.06,4.2-.24,6.3a34.67,34.67,0,0,1-34.4,30.67Zm0,0a34.7,34.7,0,0,0,23-8.86,34.33,34.33,0,0,0,11.25-21.83,62.65,62.65,0,0,0,.21-6.28l0-6.3-.07-12.59-.14-25.18q-.35-50.37-1-100.73t-1.63-100.73l-2-100.74a29.39,29.39,0,0,0-7.92-19.29,28.59,28.59,0,0,0-18.4-9c-.87-.08-1.74-.05-2.6-.09l-.66,0h-.79l-1.57,0-6.3.13-12.59.26L346.62,17q-50.37.93-100.74,1.62Q145.15,20,44.42,20A24.65,24.65,0,0,0,20,41.77c-.09.74-.08,1.5-.14,2.25l0,.58V47l0,6.3-.07,12.59L19.52,91q-.35,50.37-1,100.73T16.87,292.49l-2,100.74A30.15,30.15,0,0,0,41,423.59c.92.12,1.85.14,2.78.23l.71.05.78,0,1.58,0,6.29.12,12.6.26,25.18.48q50.37.93,100.73,1.61Q292.39,427.74,393.12,427.76Z"/><path class="cls-1" d="M66.82,43.15H44V74.46H66.82V63.81l8.55,2.49v5.9q0,6.83-1.89,9.35t-7.23,2.52H44.53q-5.25,0-7.14-2.49T35.5,72.2V45.76c0-4.56.62-7.66,1.87-9.32S41,34,44.53,34H66.25c3.59,0,6,.83,7.25,2.49s1.87,4.76,1.87,9.32v4.86l-8.55,1.79Z"/><path class="cls-1" d="M88.45,45.76c0-4.56.62-7.66,1.85-9.32S93.93,34,97.49,34h26.89q5.38,0,7.21,2.49c1.22,1.66,1.83,4.76,1.83,9.32V72.2q0,6.89-1.87,9.38t-7.17,2.49H97.49q-5.34,0-7.19-2.49T88.45,72.2Zm8.47,28.7h28V43.15h-28Z"/><path class="cls-1" d="M148.07,84.07V34h5.82L183.4,67.23V34h7.67V84.07h-5.86l-29.43-33.8v33.8Z"/><path class="cls-1" d="M206.6,84.07V34h5.83l29.5,33.28V34h7.67V84.07h-5.86l-29.43-33.8v33.8Z"/><path class="cls-1" d="M265.14,84.07V34h37.29V42.8H273.69V53.74h16.74v8.62H273.69V74.69h29.19v9.38Z"/><path class="cls-1" d="M345.59,43.15H322.75V74.46h22.84V63.81l8.55,2.49v5.9q0,6.83-1.88,9.35T345,84.07H323.31q-5.26,0-7.15-2.49t-1.88-9.38V45.76c0-4.56.62-7.66,1.87-9.32S319.78,34,323.31,34H345c3.59,0,6,.83,7.25,2.49s1.86,4.76,1.86,9.32v4.86l-8.55,1.79Z"/><path class="cls-1" d="M388.79,42.92V84.07h-8.47V42.92H363.54V34h42.07v9Z"/><path class="cls-1" d="M277,204.56c-1.15.13-1.46-1-3.21-1.55-1.51-.49-2.05.08-3.21-.59-.57-.33-1.58-1.13-1.43-1.79.22-.94,2.63-.39,5.23-2,1.56-1,2.39-2.22,2.26-2.38s-1.62,1.29-3.68,1.19c-.63,0-1.67-.22-1.79-.71s.64-1,1.91-1.91a16.4,16.4,0,0,0,2.49-1.78c.62-.63,1.27-1.54,1.07-1.79s-1.82,1.13-3.33.6c-.53-.19-1.1-.65-1.07-1.07s.71-.61,2-1.19c1.8-.8,2.7-1.19,3.22-1.79.87-1,.48-1.71,1.54-2.73.34-.33,1.06-1,1.67-.84s.49,1.22,1.31,3.22c.63,1.53,1,1.6,1.19,2.61a6.11,6.11,0,0,1-.36,3.1c-.93,3-1.71,3-2.5,5.47s-.4,3.48-1.66,4.88A2.8,2.8,0,0,1,277,204.56Z"/><path class="cls-1" d="M239.53,276.41c1.84-1.17,2.16-2.75,3.93-3,.23,0,1.3-.21,1.78.36.83,1-.72,3.51-1.25,4.46-1.46,2.66-1.57,6.29-1.78,13.57-.34,11.49.88,29.72,1.25,44.79.18,7.57.28,19.77-.36,19.81s-1.38-7.94-2.14-15c-1-8.89-1.44-13.33-1.79-19.45-.27-4.89-.43-10-.89-10s-.26,6.11-3.57,13c-1.37,2.87-3.21,6.58-6.25,7-1.92.24-3.59-.94-6.06-2.68-3.93-2.76-4-4.52-6.61-5.17-2.13-.53-4.83,0-6.06,1.6a5.21,5.21,0,0,0-.72,3.39s0,1-.18,9.46a35.39,35.39,0,0,1-1.6,9.28,30.85,30.85,0,0,1-3.57,8.93c-1.5,2.38-4.49,6.26-5.71,5.71-1-.46-.15-3.54.35-8.39.29-2.78.14-7.15-.17-15.88-.23-6.28-.52-10.93-.9-17-.7-11.1-1-16.65-1.07-16.77-.67-3.87.05-7.88-.35-11.78a4.29,4.29,0,0,1,.71-3.39c1.07-1.15,2.88-.92,4.28-.9,6,.1,11-3.65,10.89-3.92s-2.72.91-7.32,1.6c-4,.61-7.62,1.11-11.24-.53-2.35-1.07-4.35-2.89-4.11-3.39s1.91.35,4.64.71c3.57.48,6.36-.07,9.64-.71a49.24,49.24,0,0,0,7.5-2.14c3.92-1.43,5.17-2.39,9.1-3.39a12.65,12.65,0,0,1,5.35-.54c1.79.27,1.91.78,4.11,1.25a17.43,17.43,0,0,0,5.89.18C237.4,277.21,238.47,277.08,239.53,276.41Z"/><path class="cls-1" d="M166,337.62c.26,0,.69-.95,3-13.74,1.67-9.16,2.51-13.73,2.85-16.6,1.26-10.67-.15-9.18,1.07-20.7A60.51,60.51,0,0,0,173,272a14.84,14.84,0,0,0-2.14-6.61c-1.48-2.27-2.92-2.86-5.71-5.17a89.47,89.47,0,0,1-7-7.32c-4.24-4.69-6.37-7-7.85-9.1-3.34-4.64-2.67-5.14-6.25-10-.5-.68-2.3-2.89-5.89-7.31a33.31,33.31,0,0,1-5.17-7.68c-1.08-2.34-1.66-4.53-1.43-4.64s1.24,2,3.57,5c1.19,1.52,2.42,3.07,2.85,2.86.85-.43-1.8-7.25-1.6-7.32s1.71,3.47,3.92,7.85c.24.47,1.15,2.25,1.43,2.14s-.58-2.33-.18-5.35c.11-.8.39-2.32.72-2.32.54,0,.06,4.24,2,8.74.8,1.89,2,3.41,4.46,6.43a49.27,49.27,0,0,0,7.32,7.67,33.42,33.42,0,0,0,6.6,4.46,31.88,31.88,0,0,0,4.82,2c5.5,1.76,9.24,1.08,9.28,1.6s-3.82,1.94-7.85,1.25c-1.46-.25-2.6-.71-2.68-.53s2,1.65,4.46,2.5A22.08,22.08,0,0,0,179,252c3.31-.13,5.27-.66,5.35-.36s-.52.55-5.71,2.68c-4.29,1.77-5.41,2.13-5.35,2.5.1.66,3.93.9,7.49.53,5.16-.53,8.92-2.23,9.46-1.25.24.43-.37.93-.53,2.86-.08,1-.13,1.51.18,1.78s1.3.17,4.46-1.25c3-1.33,3.73-1.83,3.92-1.6.36.4-1.36,2.72-3.39,4.46-2.56,2.2-5.19,2.12-5.17,3,0,.7,1.47,1.24,2.32,1.43,2.49.57,4.75-.66,6.42-1.61,2.16-1.21,2.26-1.83,5.18-3.56.91-.55,3.3-2,3.57-1.61s-1.66,2.28-2.68,3.21a20.91,20.91,0,0,1-4.64,3.39c-.53.28-.71.35-6.07,2.5-1.69.68-2.53,1-2.5,1.25.08.43,2.63.49,4.82.18a21.83,21.83,0,0,0,8.57-3.39c3.66-2.23,5.18-4.57,5.53-4.29s-.92,2.81-2.85,4.82a16.06,16.06,0,0,1-5,3.39,26.23,26.23,0,0,1-9.28,2c-5.43.33-8.82-.5-8.92,0s4.68,2.11,5.35,2.32a36.22,36.22,0,0,0,10,2.14,29.79,29.79,0,0,0,12.32-2.14c4.81-2,4.67-3.45,9.63-5a33.41,33.41,0,0,1,8.21-1.43c3.06-.11,3.41.34,7,.18,2.1-.1,1.58-.24,7.14-.89,3.94-.47,4.85-.47,6.25-1.25a10.13,10.13,0,0,0,3.39-3.21c1.93-2.73,1.1-3.83,2.85-7.5,1.59-3.3,2.88-3.68,3-6.07.13-2-.64-4.09-1.25-4.1s-.66,1.3-1.61,3.75a41,41,0,0,1-3.21,6.24c-1.53,2.64-2.29,4-3.39,5a13.23,13.23,0,0,1-4.64,2.86,13.51,13.51,0,0,1-4.46.71c-1.05,0-2.83-.06-2.86-.36s2.21-.21,4.64-1.6c1.74-1,2.8-2.33,4.64-4.64.53-.67,1.42-1.79,1.25-2s-1.76,1.35-4.1,2.5-4.68,1.73-4.82,1.43,2.6-1.62,6.6-4.64c.79-.6,5.23-3.95,4.82-4.64s-4.42,1.33-4.64.89,2.45-1.52,5.18-4.1a27.25,27.25,0,0,0,4.81-6.43,22.61,22.61,0,0,0,2.68-5.71c.64-2.18,1.18-4.13.36-6.25a5.53,5.53,0,0,0-2.86-3.21c-1.38-.53-2.62-.08-4.46.54-8.64,2.93-8.21,2.31-10.53,3.57-1.87,1-1.05.82-5.71,3.74A41.51,41.51,0,0,1,229,237.5a37.6,37.6,0,0,1-5.18,1.61c-3.5.91-5.25,1.37-7,1.25a14.41,14.41,0,0,1-6.6-2.32,28.27,28.27,0,0,1-4.28-3.57c-2.67-2.47-3.27-3.5-3.57-4.11a11.6,11.6,0,0,1-1.07-3.56c-.47-3,.33-4.3-.72-5.54-.65-.76-1.74-1.19-2.14-.89s-.13.69.18,2.32c.56,2.92.53,3.43.36,3.93a2.68,2.68,0,0,1-1.79,1.78c-.76.13-1.47-.36-3.39-2.32-1.72-1.76-2.56-2.82-3.57-3.93-1.56-1.72-1.73-1.59-4.1-3.92-3.93-3.87-3.34-4.09-4.82-5-1.95-1.19-4.1-1.27-8.39-1.43-3.56-.12-5.35-.19-7.49.72s-2,1.54-4.46,2.5a17.15,17.15,0,0,1-5.54,1.07c-1.35.07-3.51,0-3.57-.36s1.52-.59,3.57-2c.59-.4,2.55-1.71,2.32-2.32s-1.71-.22-5.35,0c-.62,0-5.67.34-5.71,0s5.75-1.16,5.71-2c0-.37-1.3-.41-3-1.07-2.38-.89-4.43-2.33-4.29-2.67s2.27.51,6.43,1.07c.92.12,1.59.17,2.93.28,1.71.14,2.56.21,2.6.07.1-.36-3.89-1.19-7.85-3.74-2.76-1.78-4.81-3.68-4.64-3.93s1.94,1,5.17,2c.53.16,4.15,1.22,4.46.54.19-.4-.88-1.12-2.49-2.68A30.17,30.17,0,0,1,148,195c-2.61-3.92-1.82-9.05-1.43-9.1s.28,2,1.78,4.82a14.38,14.38,0,0,0,3.93,4.81c1.47,1.14,3.44,2.15,3.75,1.79s-.93-1.41-2.68-4.11a22.24,22.24,0,0,1-2.68-5.17c-.74-2.2-1-4.55-.71-4.64s1.4,2.83,4.28,7.67a11.89,11.89,0,0,0,3.57,3.93c.7.47,2,1.36,2.86.89s.4-2,1.43-2.68a2.71,2.71,0,0,1,2.14-.17c1.61.39,2,1.55,3.75,3.21a14.34,14.34,0,0,0,4.81,3c2.15.78,2.39.15,4.11.89,2.06.9,2.07,2,4.64,3.93a18.91,18.91,0,0,0,4.82,2.68,17,17,0,0,0,6.24,1.07,15.75,15.75,0,0,0,6.43-1.61,16.53,16.53,0,0,0,4.82-3.75,22.29,22.29,0,0,0,3.21-4.46c1.74-3.15,1.64-4.75,1.6-5.17-.09-1.06-.48-2.32-.89-2.32s-.51,1.89-1.43,3.74c-1.74,3.53-5.75,4.79-6.42,5-2.78.88-5,.38-8.39-.36a17.27,17.27,0,0,1-6.42-2.49,9.39,9.39,0,0,1-3.93-4.11c-.82-2-.46-3.77,0-6.07a12.65,12.65,0,0,1,3-6.42,11.88,11.88,0,0,1,2.08-1.6c.81-.49,1.93-1,2-.9s-.55.66-1.78,1.73c-1.41,1.21-1.54,1.22-2,1.66a8.36,8.36,0,0,0-1.78,3,11.88,11.88,0,0,0-.72,4.52,7.09,7.09,0,0,0,.72,3.57c.61,1.07,1.47,1.6,3.15,2.61a20.23,20.23,0,0,0,4.82,2.26,13,13,0,0,0,6.25.84,11.38,11.38,0,0,0,5.41-2.44,13.75,13.75,0,0,0,3.33-4.17,15.21,15.21,0,0,0,2-5.17c.31-1.75.09-2.4-.12-2.8a4.38,4.38,0,0,0-2.61-1.78c-2.94-1.16-1.42-1.08-5.71-2.92-2.75-1.18-2.76-.95-7.08-2.62s-3.94-1.73-5.34-2c-2.49-.54-3.53-.22-5.8-1.12a13.37,13.37,0,0,1-3.17-1.78,23.87,23.87,0,0,1-4.06-4.29,7.31,7.31,0,0,0-2.14-2.18,4,4,0,0,0-2.54-.63,3.91,3.91,0,0,0-1.83.81c-.77.55-.87,1-1.43,1.56-1.31,1.38-3.28,1.77-3.44,1.52s.76-.64,1.65-1.92c.23-.32,1.54-2.2,1.07-2.77s-3.68.69-5.84,2.28a31,31,0,0,0-2.54,2.14c-1.72,1.58-2.5,2.57-2.77,2.41-.1-.07-.12-.28.58-2.59.47-1.53.7-2.3.85-2.72.65-1.84,1-2.4.71-2.77s-1.16-.25-1.56-.18c-1.11.21-1.85.84-3.3,2.1l-2.46,2.14a14.63,14.63,0,0,0-2.84,2.86,15.84,15.84,0,0,0-1.36,2.23c-1.64,3.06-2,4.42-3.13,6.72-.32.63-1,1.69-2.32,3.81-3.46,5.5-5.19,8.25-6.36,9.81-2.4,3.2-2.93,3.31-3.75,5.18-.2.46-.61,1.46-1.43,6.42-.65,3.94-1,5.92-.89,7.41.12,2.23.74,3.87,2,7.14a37.31,37.31,0,0,0,5.89,11.15c.85,1,.54.52,3.66,3.93,3.29,3.59,4.94,5.38,6,6.78,3.75,5,2.65,6.23,6.42,10.71,1.23,1.45,1.69,1.73,4.11,4.55,2.05,2.38,1.91,2.4,4.1,5,2.88,3.4,3.44,3.74,4.38,5.45a16.68,16.68,0,0,1,1.69,4.37c.48,2.07.22,2.86.63,5.8.26,1.95.52,2.66.8,4.1a35.16,35.16,0,0,1,.36,8.84c-.22,5,0,10.05,0,15.08,0,9.05,0,9.91-.18,12.85-.32,4.38-.62,4.7-.89,8.83C165.27,330.33,165.31,337.56,166,337.62Z"/><path class="cls-1" d="M158.51,159.07c-.64.35-1.62-.28-1.88-.45-1.16-.75-1.53-2-2-3.48-1.56-4.56-1.65-3.66-2-5.26a14,14,0,0,1,2.94-12,17.37,17.37,0,0,1,7.23-5.18,22.92,22.92,0,0,1,7.85-1.6,19.43,19.43,0,0,1,5.36.18,13.75,13.75,0,0,1,5.53,2.05c1.58,1.07,2.9,2.52,2.68,2.85s-1-.25-3-.62c-1-.18-2.53-.39-2.59-.18s1.48.57,3.48,1.79c2.45,1.48,3,2.64,3.13,3.12,0,.07.51,1.5,0,1.87s-1.1-.39-2.77-.8c-.91-.23-2.28-.41-2.41-.09s.76.68,2.41,2.05a19.65,19.65,0,0,1,2.32,2.23,7.27,7.27,0,0,1,1.43,2.06c.25.63.45,1.56,0,3.74-.56,2.7-1.21,3-2,5.89a10.3,10.3,0,0,0-.54,3.93,19.24,19.24,0,0,0,.71,3.3,5.86,5.86,0,0,1,.54,2.5c0,.28-.13,1.49-.8,1.78s-1.55-.48-2.5-1.24a55,55,0,0,0-5.27-3.57,26.35,26.35,0,0,0-5.26-2.41,48.48,48.48,0,0,1-4.91-1.52,8.68,8.68,0,0,1-3.57-2.23A7.7,7.7,0,0,1,161,154a9.85,9.85,0,0,1,.08-4.82c.22-.73.68-1.82,1.61-4,.45-1.05.69-1.58.54-1.7-.32-.24-2.11,1.57-2.86,2.32-1.69,1.71-2.09,2.46-2.5,2.32-.66-.21-.55-2.48-.27-3.92a12.23,12.23,0,0,1,1.25-3.31,35.53,35.53,0,0,1,2.32-3.3,9,9,0,0,0-3.39,3.13,9.68,9.68,0,0,0-2,4.9,10.52,10.52,0,0,0,1.07,5.27c.68,1.57,1,1.45,1.52,2.85C159.16,155.68,159.53,158.5,158.51,159.07Z"/><path class="cls-1" d="M191.94,173.08c-.78.13-1.86-2.74-2.26-3.81-.81-2.14-1.88-5.75-2-13.32a35.38,35.38,0,0,1,.47-8.57c.55-2.73,1.1-5.29,3.21-7.62a10.2,10.2,0,0,1,4.76-3.09c2-.54,2.42.1,6.43.24,4.17.15,4.55-.51,7.26,0a11.77,11.77,0,0,1,5.35,2.14,11.27,11.27,0,0,1,3.93,6.07c.47,1.82.25,2.82.11,5.83-.19,4.44.21,4.15.12,8.92-.15,7.8-1.2,6.92-1,12.14a21.5,21.5,0,0,1-.59,7.73c-.72,2.5-1.51,3.16-2.15,3.45-1.43.65-3.15-.17-4.52-.83s-1.43-1-3.45-2.38c-2.47-1.74-3-1.71-4.87-3.1a29.11,29.11,0,0,1-3.81-3.33c-2.45-2.43-3.68-3.65-4.4-5.47-.41-1-.51-2.46-.72-5.35-.23-3.24-.34-4.89.12-6.67a14.87,14.87,0,0,1,2-4.4c2-3,4-4.17,3.69-4.76s-1.87-.22-3.09.36c-2.21,1.05-2.92,3-3.33,2.86s-.14-2.3.83-4.17a10.93,10.93,0,0,1,3.81-4,28.62,28.62,0,0,1,3-1.55c-.07-.23-4-.2-7,2.5a10.38,10.38,0,0,0-3.09,5.95,24.81,24.81,0,0,0,.12,3.45c.13,3.46,0,3.65.12,6.18a30.38,30.38,0,0,0,.59,5.71c.54,2.26,1.06,2.76,1.19,4.64S192.62,173,191.94,173.08Z"/><path class="cls-1" d="M231.08,212a7.6,7.6,0,0,1-5.23.36c-.95-.34-.93-.62-2.74-1.55-2.05-1-2.4-.85-3.81-1.66a7.82,7.82,0,0,1-3.21-2.86c-.34-.6-.83-1.76-.59-4.52s.92-3.63,1.78-6.78a65.82,65.82,0,0,0,1.43-8.69c.08-.64.35-2.75.59-5.59.34-3.84.3-5.09.48-7.73a108.17,108.17,0,0,1,1.55-11.3,51,51,0,0,1,2.26-9.52c1-2.84,1.74-4,2.85-5a9.16,9.16,0,0,1,5.71-2.14c1.41,0,2.65.42,5.12,1.31a26,26,0,0,1,5.11,2.26,23.65,23.65,0,0,1,5.72,4.88c.74.85,1.42,1.73,2.37,3,2.08,2.7,2.16,3.1,3.1,3.81a13.65,13.65,0,0,0,4.16,1.78c2.54.84,2.68.57,4,1.19a15.54,15.54,0,0,1,4,3c1.63,1.45,1.69,1.72,3.69,3.68,3.1,3.06,3.62,3.07,5,4.88a13.16,13.16,0,0,1,2.38,4.29,12.79,12.79,0,0,1,.47,4.87,12.3,12.3,0,0,1-.71,3.57,8.68,8.68,0,0,1-1.55,2.86,9.86,9.86,0,0,1-3.09,2.26c-1,.58-2.16,1.21-2.38.95s.92-1.35,2-3.33a16.18,16.18,0,0,0,1.79-5.24,11.34,11.34,0,0,0,0-5.35,10,10,0,0,0-1.67-3.33c-1.1-1.51-2.67-2.85-3-2.62s.7,1.3,1.19,3.45a8,8,0,0,1-.12,4.76,8.49,8.49,0,0,1-2.26,3c-1.8,1.77-2.49,1.56-3.45,3a14.84,14.84,0,0,0-1.31,3.21,32,32,0,0,0-1,3.22c-.63,2.63-.25,2.75-.72,4.64a11,11,0,0,1-2.61,5.23c-.24.24-1.11.88-2.86,2.14a33.55,33.55,0,0,1-3.45,2.38c-1.49.61-1.88.22-5.12.95-.8.19-2.28.52-2.26.72s1.59,0,4.17.12c2.82.16,3.27.58,4.76.23s2.53-1.2,2.73-.95-.74,1.49-1.54,2.26a11.68,11.68,0,0,1-2.74,1.91,12.87,12.87,0,0,1-4.28,1.54c-.75.11-1.08.07-4.52-.24-3.79-.33-4.49-.37-4.53-.23s1.9,1.11,3.93,1.54a16.73,16.73,0,0,0,5.24.24,14.09,14.09,0,0,0,4.16-.83,13.77,13.77,0,0,0,3.81-2.26,17.89,17.89,0,0,0,3-3.1,33.09,33.09,0,0,0,3.09-4.75c1.11-1.93,2-3.43,3-5.6s1.33-3.26,1.66-3.21c.49.08.68,2.3.36,4.28a14.62,14.62,0,0,1-1.66,4.41,46.25,46.25,0,0,1-3.34,5.35,40.39,40.39,0,0,1-3.33,4.52A17.17,17.17,0,0,1,255,219a15.15,15.15,0,0,1-6.07,2.14c-2.27.37-4.09.13-7.74-.35s-4.68-1-5.35-1.67a5.7,5.7,0,0,1-1.66-3.45,6.46,6.46,0,0,1,.83-3.45c.85-1.91,1.56-2.36,2.73-4.16a52.76,52.76,0,0,0,2.5-5.24c.58-1.29,1.37-3,2.38-5.47.6-1.44,1.44-3.43,2.38-5.95,1.38-3.67,2.36-6.73,3-8.69.47-1.5,1.11-3.56,2.14-6.54a21.32,21.32,0,0,1,1.78-4.28,12.24,12.24,0,0,1,3.69-4.17c2-1.32,3.88-1,3.93-1.66,0-.49-.91-1-1.67-1.19-1-.25-1.48.19-2.85.35-.93.11-2.67.32-3.57-.59-.65-.65-.17-1.15-.84-3.09a9.45,9.45,0,0,0-1.66-3c-.55-.66-1.46-1.57-1.67-1.43s.83,1.51,1.43,3.93a12.93,12.93,0,0,1,.36,3.33c0,.26-.05,2.9-.6,3-.35,0-.59-1.06-1.54-2.74-1.06-1.85-2.46-3.49-2.74-3.33s.51,1.32,1,3.69a9,9,0,0,1,0,4.4,8.17,8.17,0,0,1-1,2c-.88,1.43-1.45,1.55-2.14,2.62-.57.87-.52,1.3-1.07,3.45-.66,2.56-.85,2.42-1.31,4.28a46.3,46.3,0,0,0-.83,6.07,45.2,45.2,0,0,1-.6,5.24,27.43,27.43,0,0,1-1.55,4.64c-1.4,3.47-2.56,5.11-2.14,5.47s1.52-.52,2.14-1c1.71-1.19,2.35-2.41,2.62-2.26s-.16,1.63-.59,2.73a16.55,16.55,0,0,1-2,3.69C234.38,209.54,233.23,211.11,231.08,212Z"/><path class="cls-1" d="M129.22,124.52c-.42-1.1-.92-2.23-1.46-3.35-4.78-9.79-13.25-17.43-24.5-22.09-14.92-6.18-28.16-1.24-36.64,4a63.61,63.61,0,0,0-15,13l-.3.37.48,0c.31,0,30.65,1.41,40.27,2.47a27.13,27.13,0,0,1,7.36,21.81,34.91,34.91,0,0,1-11,21.29l-37.93-2.07.15.36c.16.39,4.19,9.64,24.44,18,10.49,4.35,20,5.32,28.25,2.88a31,31,0,0,0,3.9-1.44c9.32-4.18,16.86-13.08,22.41-26.48C132.31,146.83,133.61,135.89,129.22,124.52Z"/><path class="cls-2" d="M55,115.81l1.17-1.16c.76-.76,1.9-1.85,3.39-3.2s3.34-2.93,5.58-4.6a46.21,46.21,0,0,1,8.09-4.79,40.7,40.7,0,0,1,10.64-3.32A34.17,34.17,0,0,1,96.29,99a37,37,0,0,1,6.33,2,53.76,53.76,0,0,1,6.07,3,45.94,45.94,0,0,1,10.85,8.5A41,41,0,0,1,127.1,124l.34.79.16.41.14.4c.2.53.39,1.05.58,1.58.34,1.09.69,2.18.94,3.28a41.76,41.76,0,0,1,1.05,6.57,36.86,36.86,0,0,1-1.23,12.52,27.63,27.63,0,0,1-1,2.82c-.39.91-.76,1.74-1.15,2.6-.81,1.69-1.61,3.31-2.47,4.82a50.28,50.28,0,0,1-5.31,7.81,37.4,37.4,0,0,1-5.13,5.17,33.38,33.38,0,0,1-3.81,2.72l-1.44.81-.07-.13,1.37-.9a35.79,35.79,0,0,0,3.61-2.89,43.28,43.28,0,0,0,4.8-5.31c.44-.54.83-1.13,1.27-1.72l1.25-1.89c.81-1.33,1.64-2.73,2.43-4.24s1.56-3.11,2.31-4.77c.36-.84.74-1.74,1.08-2.59a25.79,25.79,0,0,0,.87-2.7,37,37,0,0,0,1.07-12,39.81,39.81,0,0,0-1-6.34c-.23-1.07-.55-2.1-.85-3.14l-.55-1.59-.14-.4-.14-.37-.31-.77a39.45,39.45,0,0,0-7.16-11.31,44.29,44.29,0,0,0-10.49-8.43,53.94,53.94,0,0,0-5.94-3,34.47,34.47,0,0,0-6.13-2A33.91,33.91,0,0,0,84,99.4a39.69,39.69,0,0,0-10.54,3.1,44.62,44.62,0,0,0-8.09,4.62c-2.25,1.63-4.12,3.2-5.63,4.51S57,114,56.27,114.77l-1.18,1.15Z"/><path class="cls-2" d="M52.12,162.3s.56,0,1.55,0,2.39,0,4.08.06,3.65.1,5.76.19c1.05,0,2.14.08,3.25.15l3.35.18,3.35.21c1.1.07,2.19.16,3.24.24,2.11.16,4.07.33,5.75.49s3.08.33,4.06.43l1.53.18H86.49c-1,0-2.39,0-4.08-.06s-3.65-.1-5.76-.19L73.4,164l-3.35-.18-3.35-.22-3.24-.23c-2.1-.16-4.06-.33-5.74-.5s-3.08-.32-4.06-.42S52.12,162.3,52.12,162.3Z"/><path class="cls-2" d="M97,155.33l.71-1.43c.21-.46.47-1,.75-1.67s.56-1.38.85-2.19a40.64,40.64,0,0,0,1.61-5.65c.22-1.06.39-2.15.53-3.27.06-.54.12-1.13.16-1.69s.06-1.13,0-1.7a27.2,27.2,0,0,0-.16-3.39,32.89,32.89,0,0,0-.53-3.25l-.18-.78c-.07-.25-.13-.51-.2-.75-.12-.51-.28-1-.43-1.46-.3-.93-.63-1.8-1-2.6s-.67-1.51-1-2.14-.61-1.16-.85-1.6l-.82-1.38.26.33c.16.22.43.52.72.94s.65.92,1,1.53a22.62,22.62,0,0,1,1.18,2.09,26.4,26.4,0,0,1,1.14,2.59c.17.48.36,1,.51,1.47s.32,1,.45,1.56a26.71,26.71,0,0,1,.83,6.85c0,.58,0,1.18-.07,1.77s-.1,1.14-.17,1.73a33.86,33.86,0,0,1-.63,3.33,29.52,29.52,0,0,1-.89,3,28,28,0,0,1-1,2.64,33.48,33.48,0,0,1-2,3.74c-.26.43-.48.76-.63,1Z"/><path class="cls-1" d="M365.62,262.07c-.28,0-28-1.29-36.78-2.26a24.84,24.84,0,0,1-6.71-19.9,32,32,0,0,1,10.08-19.43l34.67,1.9-.15-.36c-.15-.36-3.82-8.82-22.33-16.49-12.71-5.26-23.73-5.1-32.77.49-7,4.3-12.72,11.84-17.1,22.4-2.51,6.07-3.66,16.34.65,26.94,2.87,7.06,9.27,16.71,23.46,22.59,13.64,5.65,25.74,1.13,33.49-3.65a57.72,57.72,0,0,0,13.67-11.84l.3-.37Z"/><path class="cls-2" d="M300.58,260.57s-.27-.37-.75-1.08a34.68,34.68,0,0,1-1.86-3.22c-.19-.36-.37-.74-.56-1.14-.09-.21-.19-.42-.29-.63s-.17-.43-.26-.65c-.18-.45-.38-.9-.55-1.4s-.35-1-.54-1.55a35.9,35.9,0,0,1-1.52-7.39,34.23,34.23,0,0,1,.32-9,26.86,26.86,0,0,1,1.27-4.78c.29-.81.64-1.56,1-2.33s.69-1.56,1.08-2.34q1.14-2.32,2.52-4.62c.93-1.51,2-3,3.05-4.45a35.63,35.63,0,0,1,8-7.63l1.17-.75c.41-.24.78-.47,1.21-.69a24,24,0,0,1,2.51-1.2,26.17,26.17,0,0,1,5.28-1.56,31.13,31.13,0,0,1,10.63-.06,45.65,45.65,0,0,1,9.55,2.64c1.47.57,2.87,1.19,4.2,1.81s2.61,1.29,3.8,2a58.22,58.22,0,0,1,10.73,7.72c1.18,1.07,2.07,1.95,2.68,2.55l.92.93-.1.11-.94-.92c-.62-.59-1.52-1.45-2.72-2.49a58.06,58.06,0,0,0-10.8-7.48c-1.19-.65-2.47-1.27-3.8-1.88s-2.74-1.19-4.2-1.71a46.14,46.14,0,0,0-9.44-2.44,30.64,30.64,0,0,0-10.32.21,25.56,25.56,0,0,0-9.7,4.19,33.91,33.91,0,0,0-7.53,7.5c-1.05,1.42-2,2.9-2.89,4.38s-1.67,3-2.4,4.54c-.36.76-.71,1.51-1.06,2.27s-.68,1.53-.95,2.26a27.82,27.82,0,0,0-1.25,4.51,34.65,34.65,0,0,0-.55,8.61,38.67,38.67,0,0,0,1.15,7.24c.16.53.3,1,.45,1.52s.32,1,.47,1.42c.08.23.16.45.23.67s.16.42.23.62l.47,1.15a35.87,35.87,0,0,0,1.62,3.31c.41.75.64,1.14.64,1.14Z"/><path class="cls-2" d="M328.58,262.25l5.42.18,5.56.21,3.13.14,3.24.16,3.23.19c1.06.06,2.11.14,3.13.21,2,.13,3.92.28,5.55.42s3,.29,3.92.38l1.48.17s-.54,0-1.49,0-2.31,0-3.94,0-3.53-.06-5.57-.13l-3.13-.12-3.24-.16-3.23-.2c-1.07-.06-2.12-.15-3.13-.22-2-.16-3.93-.34-5.55-.52s-3-.37-3.91-.49l-1.09-.18Z"/><path class="cls-2" d="M327.77,221.53l-.27.37-.75,1c-.31.45-.69,1-1.09,1.65s-.84,1.39-1.29,2.21-.91,1.73-1.34,2.71-.84,2-1.23,3.12a35.72,35.72,0,0,0-1,3.46,36.73,36.73,0,0,0-.64,3.63,28.79,28.79,0,0,0-.19,3.69,31.64,31.64,0,0,0,.3,3.56,28.76,28.76,0,0,0,.69,3.28c.28,1,.61,2,.94,2.86s.69,1.65,1,2.34l.48,1,.44.79c.27.48.5.84.65,1.1l.24.39-.28-.36c-.17-.24-.46-.57-.77-1l-.51-.76c-.18-.28-.37-.59-.57-.92s-.4-.69-.61-1.07-.4-.8-.61-1.22-.39-.89-.59-1.37-.38-1-.53-1.51a24.32,24.32,0,0,1-.84-3.34,27.26,27.26,0,0,1-.4-3.68,30.28,30.28,0,0,1,.17-3.81,35,35,0,0,1,.69-3.75c.08-.31.16-.61.23-.91l.27-.89c.17-.59.4-1.16.59-1.73a33.91,33.91,0,0,1,1.38-3.15c.48-1,1-1.87,1.52-2.68.25-.4.5-.78.74-1.14l.73-1c.47-.62.89-1.14,1.24-1.56s.66-.74.86-1Z"/><path class="cls-1" d="M311.71,206c-7.8,1.53-19.6,2.31-31.51-2.62l-9.58-4a8,8,0,0,1-.22,3.77c-2.86,9.89-10,15-17.22,21.57l15.51,6.42c13.62,5.65,21.93,16.3,26.5,24.24l.43-.25c-.23-.39-.47-.8-.72-1.21-3.39-9.31-2.84-18.9-.14-25.42,4.21-10.17,9.72-17.57,16.46-21.93l.59-.11Z"/><path class="cls-1" d="M141.51,174.13a64.12,64.12,0,0,1,11.19-11c3.59-2.94,4.73-4.86,4.84-9.73a8,8,0,0,1,.07-.88c-16.78-7-25.45-21.95-28.4-28-1-2-1.44-3.3-1.44-3.31l-.46.16a35.58,35.58,0,0,0,1.46,3.36c.25.52.55,1.11.88,1.74,3.28,9.85,2.62,19.85-.23,26.73-5.18,12.5-12.14,21.18-20.81,25.63l-1.56.48c-1.77.58-3.09,1.1-3.88,1.44-.37.15-.57.25-.57.25l.21.44.55-.24c.78-.33,2.09-.85,3.84-1.42,6.84-2.24,19.54-5,33.16-1.31A6.11,6.11,0,0,1,141.51,174.13Z"/><path class="cls-2" d="M159.26,155.44l-2.17-.88a56.68,56.68,0,0,1-5.63-2.68c-1.73-1-3.32-2-4.78-3a56.17,56.17,0,0,1-7.06-5.84c-1.82-1.78-3.17-3.27-4.06-4.31-.45-.51-.77-.92-1-1.19l-.34-.42.32.43c.22.28.53.7,1,1.23a56,56,0,0,0,3.91,4.46,59.05,59.05,0,0,0,7,6.09c1.44,1,3,2.11,4.75,3.13a55.29,55.29,0,0,0,5.66,2.83l2.5,1.06C159.25,156.07,159.25,155.75,159.26,155.44Z"/><path class="cls-2" d="M303.34,209.49l-1.56,0c-1.37,0-3.38,0-5.92-.22a53.37,53.37,0,0,1-9-1.52,46.32,46.32,0,0,1-5.36-1.7c-1.86-.7-3.77-1.55-5.79-2.4L266,199.56a6.48,6.48,0,0,1-.39.93l9.8,4c2,.81,4,1.63,5.86,2.3a49.63,49.63,0,0,0,5.48,1.57,54.89,54.89,0,0,0,9.14,1.27,58.1,58.1,0,0,0,5.94,0c.68,0,1.21-.08,1.56-.1l.53,0Z"/><path class="cls-2" d="M81.24,375.7a4,4,0,0,1-1.55,1.7,4.5,4.5,0,0,1-2.31.57,4.75,4.75,0,0,1-4.12-2,10.07,10.07,0,0,1-1.46-5.88,19,19,0,0,1,5.08-13.3,16,16,0,0,1,12.19-5.55c3.26,0,5.81.76,7.65,2.3a7.9,7.9,0,0,1,2.75,6.39,26.55,26.55,0,0,1-.85,5.85c-.57,2.4-1.49,5.46-2.74,9.18q7.7-13,12.93-18.21t10.33-5.19a6.13,6.13,0,0,1,4.73,1.82,7.18,7.18,0,0,1,1.7,5.09q0,4.06-5.37,15.29l-.79,1.59q8.93-13,15-18.55c4-3.71,7.76-5.56,11.13-5.56a6.16,6.16,0,0,1,6.4,6.42q0,4-5.75,16.94l-.92,2.08-.55,1.27Q139,391,139,393.39a3.57,3.57,0,0,0,1.58,3.23,10.36,10.36,0,0,0,5.13,1.12l-1.34,4.35h-1q-6.78,0-9.87-2.13c-2.06-1.42-3.1-3.65-3.1-6.7q0-4,6.81-19.05l2.22-4.87.35-.75c2-4.5,3-7.27,3-8.31a1.68,1.68,0,0,0-.48-1.21,1.51,1.51,0,0,0-1.13-.51q-2.64,0-9.77,8.17a97.66,97.66,0,0,0-12.84,19.1c-1.21,2.25-2.36,4.56-3.47,6.93s-2.15,4.77-3.13,7.22a3.19,3.19,0,0,1-1.45,1.85,7.45,7.45,0,0,1-2.82.39,14.88,14.88,0,0,1-4.35-.47c-.93-.32-1.4-.8-1.4-1.45a38.28,38.28,0,0,1,2.53-5.87c1.32-2.84,2.42-5.2,3.28-7.08q4.8-10.46,7.48-17.36t2.68-8.77a2.37,2.37,0,0,0-.61-1.67,2,2,0,0,0-1.54-.66q-3.28,0-9.1,7.25a98.29,98.29,0,0,0-11.29,18.55c-1.36,2.84-2.73,6-4.1,9.48s-2.16,5.44-2.36,5.87a3.5,3.5,0,0,1-1.47,1.84,9.62,9.62,0,0,1-3.15.34,11.51,11.51,0,0,1-3.76-.49c-.89-.32-1.33-.78-1.33-1.36s.84-2.83,2.53-6.66,3.08-7.13,4.17-9.9a108.29,108.29,0,0,0,4.29-12.56,37.56,37.56,0,0,0,1.59-8.63,4.88,4.88,0,0,0-1.14-3.46A4.29,4.29,0,0,0,87.33,358a7.5,7.5,0,0,0-6.12,3.42,13.22,13.22,0,0,0-2.57,8.16,9.59,9.59,0,0,0,.7,3.69A5.44,5.44,0,0,0,81.24,375.7Z"/><path class="cls-2" d="M157.72,398.84a37.9,37.9,0,0,1-6.66,2.31,34.1,34.1,0,0,1-6.72.94l1.37-4.38a29.14,29.14,0,0,0,4.36-.62,23.35,23.35,0,0,0,3.88-1.23,10.94,10.94,0,0,1-1.91-3.7,17.26,17.26,0,0,1-.62-4.87,15.69,15.69,0,0,1,4.67-11.3,14.88,14.88,0,0,1,11-4.8,7.71,7.71,0,0,1,5.63,2,7.38,7.38,0,0,1,2.07,5.53q0,3.83-3,8.46a29.88,29.88,0,0,1-7.89,8.16,8.85,8.85,0,0,0,3.13,1.8,13.86,13.86,0,0,0,4.16.54h.48l-1.34,4.38h-.92a25.69,25.69,0,0,1-6.74-.8A14,14,0,0,1,157.72,398.84Zm3.52-6.85a19.07,19.07,0,0,0,6-5.95q2.43-3.75,2.43-6.54a2.92,2.92,0,0,0-.72-2.13,2.76,2.76,0,0,0-2.08-.73q-2.83,0-5,3.17a12.6,12.6,0,0,0-2.19,7.35,8.89,8.89,0,0,0,.38,2.74A5.64,5.64,0,0,0,161.24,392Z"/><path class="cls-2" d="M170.4,402.09l1.37-4.38a18.3,18.3,0,0,0,3.9-.59,14.61,14.61,0,0,0,3.42-1.39,10.67,10.67,0,0,1-1.21-3,16.65,16.65,0,0,1-.4-3.84,16.94,16.94,0,0,1,5.31-12.38,16.68,16.68,0,0,1,12.14-5.31,9.07,9.07,0,0,1,5.55,1.54,4.82,4.82,0,0,1,2.07,4,3.94,3.94,0,0,1-1,2.81A3.29,3.29,0,0,1,199,380.7a1.44,1.44,0,0,1-.77-.15c-.15-.09-.22-.34-.22-.73a3,3,0,0,0-.72-2.2,3.14,3.14,0,0,0-2.29-.72q-3.47,0-6.21,3.54a12.91,12.91,0,0,0-2.75,8.18q0,4.63,3.06,6.81t9.73,2.28l-1.3,4.38a5.44,5.44,0,0,0-1.17.13h-.17a33.67,33.67,0,0,1-8.21-.91,15.79,15.79,0,0,1-5.81-2.66,17.89,17.89,0,0,1-5.27,2.48A26,26,0,0,1,170.4,402.09Z"/><path class="cls-2" d="M205.56,398.91a10.62,10.62,0,0,1-3.5,2.25,14.35,14.35,0,0,1-4.53.93l1.33-4.38a8,8,0,0,0,5.76-2.83q2.31-2.62,4.5-9.12l7.15-21.16c.52-1.51,1.09-3.4,1.71-5.65q1.61-5.83,5.57-5.84a13.07,13.07,0,0,1,3.71.34,1.23,1.23,0,0,1,1,1.19,14.29,14.29,0,0,1-1.34,4c-.36.82-.63,1.46-.82,1.91l-11.15,26.81q5.34-8.21,9.77-12t8.67-3.78a4.78,4.78,0,0,1,3.35,1.09,3.87,3.87,0,0,1,1.2,3q0,2.18-4,11.65l-.82,2a30.41,30.41,0,0,0-1.36,3.64,9.82,9.82,0,0,0-.49,2.4,1.74,1.74,0,0,0,1,1.69,11.17,11.17,0,0,0,3.79.65l-1.3,4.38h-.78c-3.74,0-6.49-.48-8.23-1.43a4.77,4.77,0,0,1-2.62-4.48,14.61,14.61,0,0,1,1-4.28q1-2.89,3-7.37l.27-.62a19.7,19.7,0,0,0,1.74-4.41,1,1,0,0,0-.29-.81,1.27,1.27,0,0,0-.9-.26q-2,0-6.24,4.87a48.81,48.81,0,0,0-7.41,11.81c-.43.93-.9,2.07-1.4,3.41a5.5,5.5,0,0,1-5.61,3.7,5.08,5.08,0,0,1-1.92-.25.87.87,0,0,1-.54-.86,2.69,2.69,0,0,1,.19-.86A11.61,11.61,0,0,1,205.56,398.91Z"/><path class="cls-2" d="M264.36,390.34a32.83,32.83,0,0,1-7.26,9,12.08,12.08,0,0,1-7.69,2.86,10.21,10.21,0,0,1-3.4-.52,5.11,5.11,0,0,1-2.28-1.53,15.42,15.42,0,0,1-3.9,1.35,30.15,30.15,0,0,1-5.13.57l1.37-4.38a18.8,18.8,0,0,0,3.37-.46,11,11,0,0,0,2.68-1c-.09-.46-.15-.93-.2-1.42a15.37,15.37,0,0,1-.07-1.57,16.49,16.49,0,0,1,1.23-5.89,27.5,27.5,0,0,1,3.46-6.28,25.71,25.71,0,0,1,7.57-7.13,16.75,16.75,0,0,1,8.6-2.45,10.68,10.68,0,0,1,3.83.62,9.17,9.17,0,0,1,3,2l.48-1.46A3.77,3.77,0,0,1,271,371a2,2,0,0,1,1.3-.36,10.3,10.3,0,0,1,4.12.77c1.17.51,1.76,1.11,1.76,1.8a17.25,17.25,0,0,1-1.47,3.05q-1.47,2.73-2.6,5.19a80.07,80.07,0,0,0-3.4,8.39,18.66,18.66,0,0,0-1.15,5.37,1.94,1.94,0,0,0,.85,1.81,11.31,11.31,0,0,0,3.9.76l-1.33,4.35h-.62q-5.37,0-7.55-1.07a3.74,3.74,0,0,1-2.19-3.64,11.57,11.57,0,0,1,.41-2.79A41.27,41.27,0,0,1,264.36,390.34Zm3.48-12.3a7,7,0,0,0-1.83-1,5.27,5.27,0,0,0-1.83-.32,9,9,0,0,0-4.63,1.65,22.33,22.33,0,0,0-5,4.51,23.13,23.13,0,0,0-3.47,5.57,13.07,13.07,0,0,0-1.28,5.14,3.89,3.89,0,0,0,.58,2.36,2.08,2.08,0,0,0,1.78.76q3.34,0,7.35-4.74A65.14,65.14,0,0,0,267.84,378Z"/><path class="cls-2" d="M281,398.91a10.67,10.67,0,0,1-3.51,2.25,14.23,14.23,0,0,1-4.53.93l1.3-4.38a8,8,0,0,0,6.09-3.2q2.49-3.08,4.55-9.88,1-3.28,2.05-7.79,1.36-6,4.34-6a17.61,17.61,0,0,1,3.83.29c.75.2,1.13.54,1.13,1a37.48,37.48,0,0,1-2.12,5.55q-2.12,5-3.76,9.67,5.34-8.21,9.76-12t8.67-3.78a4.8,4.8,0,0,1,3.36,1.09,3.89,3.89,0,0,1,1.19,3q0,2.21-4,11.52l-.85,2a31.32,31.32,0,0,0-1.35,3.68,10.27,10.27,0,0,0-.5,2.42,1.74,1.74,0,0,0,1,1.69,11.25,11.25,0,0,0,3.8.65l-1.3,4.38h-.79q-5.61,0-8.23-1.43a4.76,4.76,0,0,1-2.61-4.48,14.85,14.85,0,0,1,1-4.28q1-2.89,3-7.37l.27-.62a19.45,19.45,0,0,0,1.75-4.41,1,1,0,0,0-.29-.81,1.32,1.32,0,0,0-.91-.26q-2,0-6.24,4.87a49.12,49.12,0,0,0-7.41,11.81c-.43.93-.9,2.07-1.4,3.41a5.49,5.49,0,0,1-5.61,3.7,5,5,0,0,1-1.91-.25.86.86,0,0,1-.55-.86,2.69,2.69,0,0,1,.19-.86A10.36,10.36,0,0,1,281,398.91Z"/><path class="cls-2" d="M310.12,402.09l1.3-4.38c2.69-.09,5-1.5,6.89-4.24s3.7-7.24,5.38-13.52c.26-1,.55-2.26.89-3.8.69-3.26,2.93-4.9,6.74-4.9a4.43,4.43,0,0,1,2,.38,1.19,1.19,0,0,1,.7,1.08,13,13,0,0,1-1.18,3.8c-.79,1.88-1.35,3.34-1.7,4.38l-3.28,9.42-.13.39a17.6,17.6,0,0,0-1.24,4.41,2,2,0,0,0,1,1.9,10.51,10.51,0,0,0,3.93.7l-1.3,4.38h-1.19a15.64,15.64,0,0,1-6.62-1.09,4.57,4.57,0,0,1-2.62-3.49,14.33,14.33,0,0,1-4.36,3.33A13.53,13.53,0,0,1,310.12,402.09Zm23.08-40.74a4.28,4.28,0,0,1-3.06-1,3.8,3.8,0,0,1-1.08-2.9,5.78,5.78,0,0,1,1.59-4.11,5.13,5.13,0,0,1,3.82-1.67,4.19,4.19,0,0,1,3,1.14,3.83,3.83,0,0,1,1.2,2.92,5.54,5.54,0,0,1-1.58,4A5.22,5.22,0,0,1,333.2,361.35Z"/><path class="cls-2" d="M330.16,402.09l1.37-4.38a18.3,18.3,0,0,0,3.9-.59,14.79,14.79,0,0,0,3.42-1.39,10.4,10.4,0,0,1-1.22-3,16.69,16.69,0,0,1-.39-3.84,17,17,0,0,1,5.3-12.38,16.68,16.68,0,0,1,12.14-5.31,9.08,9.08,0,0,1,5.56,1.54,4.82,4.82,0,0,1,2.07,4,4,4,0,0,1-1,2.81,3.32,3.32,0,0,1-2.52,1.12,1.46,1.46,0,0,1-.77-.15c-.15-.09-.22-.34-.22-.73a3,3,0,0,0-.72-2.2,3.13,3.13,0,0,0-2.29-.72q-3.45,0-6.21,3.54a13,13,0,0,0-2.75,8.18q0,4.63,3.06,6.81t9.73,2.28l-1.3,4.38a5.42,5.42,0,0,0-1.16.13H356a33.61,33.61,0,0,1-8.21-.91,15.85,15.85,0,0,1-5.82-2.66,17.83,17.83,0,0,1-5.26,2.48A26,26,0,0,1,330.16,402.09Z"/><path class="cls-2" d="M357.28,402.09l1.3-4.38q3.29-.39,8.57-5.9a90.28,90.28,0,0,0,11-14.65,3.81,3.81,0,0,1-1-1.41,4.83,4.83,0,0,1-.29-1.77,5.61,5.61,0,0,1,2.05-4.35,7.18,7.18,0,0,1,4.92-1.82,4.07,4.07,0,0,1,2.72.86,2.88,2.88,0,0,1,1,2.32,5.25,5.25,0,0,1-.85,2.76,11,11,0,0,1-2.57,2.76,25.38,25.38,0,0,1,4.35,5.86,12.34,12.34,0,0,1,1.33,5.5,13.55,13.55,0,0,1-.94,5,11.86,11.86,0,0,1-2.58,4.08,7,7,0,0,0,1.81.58,13.28,13.28,0,0,0,2.46.2h.72L390,402.09h-1a17.73,17.73,0,0,1-7.14-1.46,24.5,24.5,0,0,1-4,1.2,18.31,18.31,0,0,1-3.61.39,15.39,15.39,0,0,1-5.06-.83,10.92,10.92,0,0,1-4-2.29,15.17,15.17,0,0,1-3.62,1.95A19.15,19.15,0,0,1,357.28,402.09Zm13.58-8.18a5.77,5.77,0,0,1,2.24,1.41,7.37,7.37,0,0,1,1.52,2.39,7.86,7.86,0,0,0,5-3.09,10.16,10.16,0,0,0,1.83-6.23,17.26,17.26,0,0,0-.3-3.1,31.75,31.75,0,0,0-1-3.65,34.58,34.58,0,0,1-3.76,6A59.33,59.33,0,0,1,370.86,393.91Z"/></g></g></svg>