<svg id="Layer_1" data-name="Layer 1" xmlns="http://www.w3.org/2000/svg" xmlns:xlink="http://www.w3.org/1999/xlink" viewBox="0 0 450 450"><defs><style>.cls-1{fill:#ff0001;}.cls-2{fill:#727274;stroke:#fff;stroke-miterlimit:10;}.cls-3{fill:url(#Gradiente_sem_nome_2);}.cls-4{fill:#ccc;}.cls-5{fill:#fff;}</style><linearGradient id="Gradiente_sem_nome_2" x1="246.29" y1="339.53" x2="233.24" y2="119.22" gradientUnits="userSpaceOnUse"><stop offset="0.5" stop-color="#fff"/><stop offset="0.51" stop-color="#fafafa"/><stop offset="0.52" stop-color="#ededed"/><stop offset="0.54" stop-color="#d6d6d6"/><stop offset="0.55" stop-color="#b6b6b6"/><stop offset="0.56" stop-color="#8e8e8e"/><stop offset="0.57" stop-color="#5c5c5c"/><stop offset="0.59" stop-color="#222"/><stop offset="0.59"/><stop offset="0.62" stop-color="#3f3f3f"/><stop offset="0.64" stop-color="#828282"/><stop offset="0.67" stop-color="#b8b8b8"/><stop offset="0.69" stop-color="#dfdfdf"/><stop offset="0.7" stop-color="#f6f6f6"/><stop offset="0.71" stop-color="#fff"/></linearGradient></defs><title>Prancheta 11ldpi</title><path class="cls-1" d="M158,306V295.5h3.65l9.15,6.21,9.12-6.21h3.67V306h-4.23v-7.21L171,304.71h-.89l-8.46-5.78v7Z"/><path class="cls-1" d="M192,306V295.5H212v1.85H196.55v2.28h9v1.81h-9V304h15.7v2Z"/><path class="cls-1" d="M235.23,297.42H222.94V304h12.29v-2.22l4.6.52v1.23a2,2,0,0,1-1,2,9.67,9.67,0,0,1-3.89.52H223.24a9.48,9.48,0,0,1-3.84-.52,2,2,0,0,1-1-2V298a2,2,0,0,1,1-1.95,9.67,9.67,0,0,1,3.85-.51h11.69a9.86,9.86,0,0,1,3.9.51,2,2,0,0,1,1,1.95v1l-4.6.37Z"/><path class="cls-1" d="M247.33,306V295.5h4.6v4h14.23v-4h4.56V306h-4.56v-4.41H251.93V306Z"/><path class="cls-1" d="M276.23,306l11.1-10.47h4.38L303,306h-5.12l-2.36-2.3H283.14l-2.36,2.3Zm8.85-4.21h8.58l-4.37-4.37Z"/><path class="cls-1" d="M307.65,306V295.5h3.13l15.88,6.95V295.5h4.12V306h-3.15l-15.83-7.06V306Z"/><path class="cls-1" d="M339.15,306V295.5h4.53V306Z"/><path class="cls-1" d="M368.41,297.42H356.12V304h12.29v-2.22l4.6.52v1.23a2,2,0,0,1-1,2,9.67,9.67,0,0,1-3.89.52H356.42a9.48,9.48,0,0,1-3.84-.52,2,2,0,0,1-1-2V298a2,2,0,0,1,1-1.95,9.67,9.67,0,0,1,3.85-.51h11.69a9.86,9.86,0,0,1,3.9.51,2,2,0,0,1,1,1.95v1l-4.6.37Z"/><path class="cls-1" d="M397.79,297.37H384.91v2.21h12.18a9.64,9.64,0,0,1,3.87.52,2,2,0,0,1,1,1.95v1.44a2,2,0,0,1-1,2,9.5,9.5,0,0,1-3.85.52H385a9.78,9.78,0,0,1-3.92-.52,2,2,0,0,1-1-2v-.29l4.06-.42V304h13.76v-2.39H385.71a9.62,9.62,0,0,1-3.89-.53,2,2,0,0,1-1-1.95V298a2,2,0,0,1,1-1.94,9.67,9.67,0,0,1,3.89-.52h11.1a10,10,0,0,1,3.88.5,1.79,1.79,0,0,1,1.05,1.77V298l-3.95.48Z"/><path class="cls-2" d="M100.66,258H78.35v18.72h22.31v-6.37L109,271.8v3.53c0,2.72-.62,4.59-1.85,5.59s-3.58,1.51-7,1.51H78.9c-3.43,0-5.75-.5-7-1.49s-1.84-2.86-1.84-5.61V259.52q0-4.08,1.82-5.57t7-1.49h21.21q5.25,0,7.07,1.49t1.83,5.57v2.9l-8.35,1.08Z"/><path class="cls-2" d="M121.79,259.52q0-4.08,1.8-5.57t7-1.49h26.26q5.25,0,7,1.49t1.78,5.57v15.81c0,2.75-.6,4.62-1.82,5.61s-3.55,1.49-7,1.49H130.61q-5.22,0-7-1.49t-1.8-5.61Zm8.27,17.16h27.36V258H130.06Z"/><path class="cls-2" d="M180,282.43v-30h5.69l28.81,19.9v-19.9H222v30h-5.73l-28.73-20.21v20.21Z"/><path class="cls-2" d="M237.16,282.43v-30h5.68l28.82,19.9v-19.9h7.48v30h-5.72l-28.73-20.21v20.21Z"/><path class="cls-2" d="M294.32,282.43v-30h36.41v5.29H302.67v6.54H319v5.16H302.67v7.37h28.5v5.61Z"/><path class="cls-2" d="M372.88,258H350.57v18.72h22.31v-6.37l8.35,1.49v3.53c0,2.72-.62,4.59-1.84,5.59s-3.59,1.51-7.06,1.51H351.12q-5.13,0-7-1.49t-1.84-5.61V259.52q0-4.08,1.82-5.57t7-1.49h21.21q5.25,0,7.07,1.49t1.83,5.57v2.9l-8.35,1.08Z"/><path class="cls-2" d="M415.06,257.82v24.61h-8.27V257.82H390.4v-5.36h41.09v5.36Z"/><path class="cls-3" d="M427,245.13c10.63-23.51-14.88-13.25-45.13-17.24-51.07-.84-77.27.69-77.63,1.09-2.68,2.3-4.9,8.27-5.65,12.11V228.71H271.89c-1.4-2,18.75,12,13,11.7-21.65-13.94-37.69-12.85-51.19,1.76L245,228.71l-143.22,1.61c-1.82-2.34,14.33,9.68,12.55,9.29-4.76-2.71-19.75-10.24-26.82-8.21-.74-1.38-12.9,8.4-16.23,11.84.28-1.81,6.58-12,6.81-12.38-25.42,1.69-30-3.42-28.27,14.27L46.29,229l5.39-11.2c18.41-2.26,33.67-2.7,43.3-11.2,65.79-47,172.39-27.15,183.38-21.48-23.44-2.76-61-3.59-84.54-3l17.05,28.59-7.67-.11-16.92-27.67c-11.36.37-34.21,3-45.22,5.92l-14.81,15.89L126,208c9.84,4,12.49,5.48,17.07,4.69,101.71-1.18,217-14.8,290.1,15.77Z"/><path class="cls-1" d="M118.17,306c-195.58-20.39-79.47-181,59.94-166.55C30.16,137-51.27,279.77,118.17,306Z"/><path class="cls-1" d="M210.55,172.31,255.06,175c-.48-4.93-41.67-25.57-46.12-24.59L198,166.21C197,163.77,211.19,171.52,210.55,172.31Z"/><path class="cls-1" d="M191.75,171.19l15.8-21.72c-2.89-5-55.29-6.57-53.67-5.56V159c-.89-1.75,36.91,1.63,38.77,3.59Z"/><path class="cls-1" d="M150.47,167.06l.72-23.15c-1.81-3.3-52.31,12.05-52,13.1l7.72,9.15C106,165.5,155.23,150.45,150.47,167.06Z"/><path class="cls-4" d="M110.39,171.51c-.54-.17-12.71-13.86-12.71-13.86-2.74-.31-41.5,25.41-43.49,29L67,189.39c-1.42-2,33.88-22.23,34.23-21.55C103.32,167.74,107.94,170,110.39,171.51Z"/><path class="cls-4" d="M71.2,192.77l-18.31-4c-5,4.94-15.26,20.48-17.63,27.32h9.28C46.09,208.93,60.66,189.56,71.2,192.77Z"/><path class="cls-4" d="M49.52,218.21H35a54.88,54.88,0,0,0-2.78,16.06,59.92,59.92,0,0,0,2.33,15.08s2.15,9.51,7.45,15.52,5.38,6.46,5.38,6.46l-4.31-7.8a36.9,36.9,0,0,1-4.39-12.39l-.81-6.37s-.72-4.49.9-11.75a58.21,58.21,0,0,1,4.57-12.93l6.19-.54Z"/><path class="cls-1" d="M333.28,246.75c9.26-3.82,7.14-13.42.71-16.7l2.67-.71c6.86,2.14,7.32,11.68,3.61,15.79C338.9,245.75,336.17,247.22,333.28,246.75Z"/><path class="cls-1" d="M419.42,248.27c5.88-2.69,5.69-11.3.52-14.32l1.93-.61c4.64,1.41,5.36,10.52,2.61,13.55C422.57,247.7,422.63,248.47,419.42,248.27Z"/><path class="cls-5" d="M324.93,243.65c-.85-3.85,3.73-14.46,9.82-15.84h-4.3c-3.48,2.55-5.75,7.43-6.6,12.34Z"/><path class="cls-4" d="M206.86,204l-13-21.87c25.38-.4,57.57-.6,84.54,3l19,16.84L278,186.31c-19.62-3.91-62.76-3.66-82.2-3.21l12.36,20.37Z"/><path class="cls-4" d="M138.69,213c-.55,0-12.71-5-12.71-5l.72-4,14.36-15.08c10.61-2.17,34.21-5.48,45-5.76l11,17.56-1.28.28L185.7,183.71c-9.87.17-34.71,4.16-44.06,6l-14,14.9.18,2.69L140.75,213Z"/></svg>